<?xml version="1.0" standalone="no"?><!DOCTYPE svg PUBLIC "-//W3C//DTD SVG 1.1//EN"
        "http://www.w3.org/Graphics/SVG/1.1/DTD/svg11.dtd">
<svg t="1729675747190" class="icon" viewBox="0 0 1024 1024" version="1.1" xmlns="http://www.w3.org/2000/svg"
     p-id="39260" xmlns:xlink="http://www.w3.org/1999/xlink" width="256" height="256">
    <path d="M420.499456 426.724352c-3.600384-15.299584-5.49888-31.299584-5.49888-47.699968 0-8.500224 0.498688-16.799744 1.499136-24.999936-50.599936-7.100416-89.499648-50.499584-89.499648-103.000064 0-57.40032 46.600192-103.999488 103.999488-103.999488 38.099968 0 71.400448 20.50048 89.499648 51.00032 20.89984-11.899904 44.099584-20.200448 68.70016-24.200192-28.60032-58.50112-88.69888-98.80064-158.199808-98.80064-97.200128 0-176 78.799872-176 176 0 93.700096 73.199616 170.300416 165.499904 175.699968z m356.200448 163.600384c-46.399488-22.59968-98.599936-35.300352-153.700352-35.300352-194.400256 0-352 157.599744-352 352 0 19.900416 16.100352 35.999744 35.999744 35.999744s35.999744-16.100352 35.999744-35.999744c0-154.600448 125.400064-280.000512 280.000512-280.000512a283.1872 283.1872 0 0 1 56.399872 5.699584c28.000256-21.2992 61.200384-36.199424 97.30048-42.39872zM908.899328 754.92352h-87.799808v-87.799808c0-19.900416-16.19968-36.100096-36.100096-36.100096s-36.100096 16.19968-36.100096 36.100096v87.799808h-87.799808c-19.900416 0-36.100096 16.19968-36.100096 36.100096s16.19968 36.100096 36.100096 36.100096h87.799808v87.799808c0 19.900416 16.19968 36.100096 36.100096 36.100096s36.100096-16.19968 36.100096-36.100096v-87.799808h87.799808c19.900416 0 36.100096-16.19968 36.100096-36.100096s-16.19968-36.100096-36.100096-36.100096zM798.999552 379.02336c0-97.200128-78.799872-176-176-176S446.999552 281.824256 446.999552 379.02336s78.799872 176 176 176 176-78.799872 176-176zM622.999552 483.024896c-57.40032 0-103.999488-46.600192-103.999488-103.999488S565.600256 275.02592 622.999552 275.02592 726.99904 321.626112 726.99904 379.025408s-46.599168 103.999488-103.999488 103.999488z m-169.299968 16.899072c-15.399936-21.499904-26.800128-46.199808-33.099776-72.800256C231.000064 432.723968 78.999552 588.12416 78.999552 779.024384c0 19.900416 16.100352 35.999744 35.999744 35.999744s35.999744-16.100352 35.999744-35.999744c0-154.600448 125.400064-280.000512 280.000512-280.000512 7.70048 0 15.200256 0.300032 22.700032 0.900096z"
          p-id="39261" fill="#555555"></path>
</svg>